<svg xmlns="http://www.w3.org/2000/svg" version="1.1" xmlns:xlink="http://www.w3.org/1999/xlink" xmlns:svgjs="http://svgjs.dev/svgjs" width="1000" height="315" viewBox="0 0 1000 315"><g transform="matrix(1,0,0,1,-0.6060351712739589,0.20653446033037426)"><svg viewBox="0 0 396 125" data-background-color="#ee3e38" preserveAspectRatio="xMidYMid meet" height="315" width="1000" xmlns="http://www.w3.org/2000/svg" xmlns:xlink="http://www.w3.org/1999/xlink"><g id="tight-bounds" transform="matrix(1,0,0,1,0.2399899278244959,-0.0819581191787222)"><svg viewBox="0 0 395.5199999999999 125.16391623835746" height="125.16391623835746" width="395.5199999999999"><g><svg viewBox="0 0 612.5036162396908 193.82926607685" height="125.16391623835746" width="395.5199999999999"><g transform="matrix(1,0,0,1,216.98361623969083,57.26267588877702)"><svg viewBox="0 0 395.52 79.30391429929595" height="79.30391429929595" width="395.52"><g><svg viewBox="0 0 395.52 79.30391429929595" height="79.30391429929595" width="395.52"><g><svg viewBox="0 0 395.52 49.04003406284595" height="49.04003406284595" width="395.52"><g transform="matrix(1,0,0,1,0,0)"><svg width="395.52" viewBox="2.4800000190734863 -35.70000076293945 293.8199768066406 36.400001525878906" height="49.04003406284595" data-palette-color="#8d021f"><g class="undefined-text-0" data-fill-palette-color="primary" id="text-0"><path d="M14 0.7L14 0.7Q11.85 0.7 9.64 0.34 7.43-0.03 5.55-0.58 3.68-1.13 2.48-1.68L2.48-1.68 3.18-7.48Q4.7-6.73 6.61-6.03 8.53-5.33 10.65-4.85 12.78-4.38 14.95-4.38L14.95-4.38Q17.98-4.38 19.78-5.51 21.58-6.65 21.58-9.05L21.58-9.05Q21.58-10.85 20.63-11.99 19.68-13.13 17.76-13.96 15.85-14.8 12.9-15.73L12.9-15.73Q10.08-16.63 7.74-17.82 5.4-19.03 4-20.96 2.6-22.9 2.6-26.03L2.6-26.03Q2.6-28.85 4.04-31.04 5.48-33.23 8.28-34.46 11.08-35.7 15.2-35.7L15.2-35.7Q18.55-35.7 21.44-34.96 24.33-34.23 26.28-33.38L26.28-33.38 25.73-27.68Q22.83-29.23 20.24-29.93 17.65-30.63 14.93-30.63L14.93-30.63Q11.98-30.63 10.16-29.58 8.35-28.53 8.35-26.25L8.35-26.25Q8.35-24.6 9.22-23.59 10.1-22.58 11.8-21.85 13.5-21.13 15.95-20.35L15.95-20.35Q19.68-19.23 22.28-17.8 24.88-16.38 26.24-14.33 27.6-12.28 27.6-9.25L27.6-9.25Q27.6-7.3 26.91-5.53 26.23-3.75 24.65-2.34 23.08-0.93 20.46-0.11 17.85 0.7 14 0.7ZM48.27 0.7L48.27 0.7Q43.27 0.7 39.37-1.55 35.47-3.8 33.25-7.89 31.02-11.98 31.02-17.5L31.02-17.5Q31.02-23.03 33.25-27.11 35.47-31.2 39.37-33.45 43.27-35.7 48.27-35.7L48.27-35.7Q53.27-35.7 57.17-33.45 61.07-31.2 63.3-27.11 65.52-23.03 65.52-17.5L65.52-17.5Q65.52-11.98 63.3-7.89 61.07-3.8 57.17-1.55 53.27 0.7 48.27 0.7ZM48.27-4.58L48.27-4.58Q52.07-4.58 54.62-6.28 57.17-7.98 58.46-10.91 59.75-13.85 59.75-17.5L59.75-17.5Q59.75-21.15 58.46-24.09 57.17-27.03 54.62-28.73 52.07-30.43 48.27-30.43L48.27-30.43Q44.47-30.43 41.92-28.73 39.37-27.03 38.09-24.09 36.8-21.15 36.8-17.5L36.8-17.5Q36.8-13.85 38.09-10.91 39.37-7.98 41.92-6.28 44.47-4.58 48.27-4.58ZM87.07 0.7L87.07 0.7Q81.87 0.7 77.86-1.55 73.84-3.8 71.57-7.89 69.3-11.98 69.3-17.5L69.3-17.5Q69.3-23.03 71.61-27.11 73.92-31.2 78-33.45 82.07-35.7 87.27-35.7L87.27-35.7Q89.97-35.7 92.34-35.13 94.72-34.55 96.5-33.65L96.5-33.65 95.9-28.53Q94.02-29.43 91.87-30.03 89.72-30.63 87.22-30.63L87.22-30.63Q83.27-30.63 80.62-28.89 77.97-27.15 76.61-24.19 75.25-21.23 75.25-17.5L75.25-17.5Q75.25-13.78 76.58-10.81 77.92-7.85 80.56-6.11 83.2-4.38 87.09-4.38L87.09-4.38Q89.67-4.38 91.78-4.94 93.9-5.5 95.9-6.45L95.9-6.45 96.5-1.33Q94.57-0.45 92.21 0.13 89.84 0.7 87.07 0.7ZM107.44 0L101.99 0 101.99-35 107.44-35 107.44 0ZM130.54 0.7L130.54 0.7Q125.54 0.7 121.64-1.55 117.74-3.8 115.52-7.89 113.29-11.98 113.29-17.5L113.29-17.5Q113.29-23.03 115.52-27.11 117.74-31.2 121.64-33.45 125.54-35.7 130.54-35.7L130.54-35.7Q135.54-35.7 139.44-33.45 143.34-31.2 145.57-27.11 147.79-23.03 147.79-17.5L147.79-17.5Q147.79-11.98 145.57-7.89 143.34-3.8 139.44-1.55 135.54 0.7 130.54 0.7ZM130.54-4.58L130.54-4.58Q134.34-4.58 136.89-6.28 139.44-7.98 140.73-10.91 142.02-13.85 142.02-17.5L142.02-17.5Q142.02-21.15 140.73-24.09 139.44-27.03 136.89-28.73 134.34-30.43 130.54-30.43L130.54-30.43Q126.74-30.43 124.19-28.73 121.64-27.03 120.35-24.09 119.07-21.15 119.07-17.5L119.07-17.5Q119.07-13.85 120.35-10.91 121.64-7.98 124.19-6.28 126.74-4.58 130.54-4.58ZM168.91 0.7L168.91 0.7Q163.76 0.7 159.85-1.55 155.94-3.8 153.75-7.9 151.56-12 151.56-17.55L151.56-17.55Q151.56-23.05 153.9-27.14 156.24-31.23 160.34-33.46 164.44-35.7 169.74-35.7L169.74-35.7Q172.54-35.7 175.09-35.11 177.64-34.52 179.51-33.68L179.51-33.68 178.94-28.7Q176.96-29.53 174.69-30.08 172.41-30.63 169.81-30.63L169.81-30.63Q165.59-30.63 162.86-28.89 160.14-27.15 158.83-24.19 157.51-21.23 157.51-17.57L157.51-17.57Q157.51-13.75 158.85-10.78 160.19-7.8 162.91-6.09 165.64-4.38 169.79-4.38L169.79-4.38Q170.91-4.38 172.39-4.56 173.86-4.75 175.21-5.18L175.21-5.18 175.21-12.83 169.99-12.83 169.99-17.55 180.66-17.55 180.66-1.95Q178.69-0.85 175.66-0.08 172.64 0.7 168.91 0.7ZM209.31 0L187.04 0 187.04-35 208.84-35 208.84-29.9 192.56-29.9 192.56-20.83 205.39-20.83 205.39-15.73 192.56-15.73 192.56-5.1 209.31-5.1 209.31 0ZM237.31 0L215.03 0 215.03-35 236.83-35 236.83-29.9 220.56-29.9 220.56-20.83 233.38-20.83 233.38-15.73 220.56-15.73 220.56-5.1 237.31-5.1 237.31 0ZM268.53 0L261.93 0 248.98-18.53 261.93-35 268.43-35 255.23-18.57 268.53 0ZM248.48 0L243.03 0 243.03-35 248.48-35 248.48 0ZM282.7 0.7L282.7 0.7Q280.55 0.7 278.34 0.34 276.13-0.03 274.25-0.58 272.38-1.13 271.18-1.68L271.18-1.68 271.88-7.48Q273.4-6.73 275.32-6.03 277.23-5.33 279.35-4.85 281.48-4.38 283.65-4.38L283.65-4.38Q286.68-4.38 288.48-5.51 290.28-6.65 290.28-9.05L290.28-9.05Q290.28-10.85 289.33-11.99 288.38-13.13 286.47-13.96 284.55-14.8 281.6-15.73L281.6-15.73Q278.78-16.63 276.44-17.82 274.1-19.03 272.7-20.96 271.3-22.9 271.3-26.03L271.3-26.03Q271.3-28.85 272.74-31.04 274.18-33.23 276.98-34.46 279.78-35.7 283.9-35.7L283.9-35.7Q287.25-35.7 290.14-34.96 293.03-34.23 294.98-33.38L294.98-33.38 294.43-27.68Q291.53-29.23 288.94-29.93 286.35-30.63 283.63-30.63L283.63-30.63Q280.68-30.63 278.87-29.58 277.05-28.53 277.05-26.25L277.05-26.25Q277.05-24.6 277.93-23.59 278.8-22.58 280.5-21.85 282.2-21.13 284.65-20.35L284.65-20.35Q288.38-19.23 290.98-17.8 293.58-16.38 294.94-14.33 296.3-12.28 296.3-9.25L296.3-9.25Q296.3-7.3 295.62-5.53 294.93-3.75 293.35-2.34 291.78-0.93 289.17-0.11 286.55 0.7 282.7 0.7Z" fill="#8d021f" data-fill-palette-color="primary"></path></g></svg></g></svg></g><g transform="matrix(1,0,0,1,0,60.61720914426637)"><svg viewBox="0 0 232.209792 18.686705155029586" height="18.686705155029586" width="232.209792"><g transform="matrix(1,0,0,1,0,0)"><svg width="232.209792" viewBox="4.25 -33.25 422.4599914550781 34" height="18.686705155029586" data-palette-color="#8d021f"><path d="M17.25-6.25L17.25-6.25 17.25-9 20.75-9 20.75-6.25Q20.75-2.9 18.7-1.07 16.65 0.75 12.55 0.75 8.45 0.75 6.35-1.07 4.25-2.9 4.25-6.25L4.25-6.25 4.25-26.25Q4.25-29.6 6.3-31.43 8.35-33.25 12.45-33.25 16.55-33.25 18.65-31.43 20.75-29.6 20.75-26.25L20.75-26.25 20.75-21.5 17.25-21.5 17.25-26.25Q17.25-30.25 12.5-30.25 7.75-30.25 7.75-26.25L7.75-26.25 7.75-6.25Q7.75-2.25 12.5-2.25 17.25-2.25 17.25-6.25ZM45.75-26.25L45.75-26.25 45.75-6.25Q45.75-2.9 43.62-1.07 41.5 0.75 37.27 0.75 33.05 0.75 30.9-1.07 28.75-2.9 28.75-6.25L28.75-6.25 28.75-26.25Q28.75-29.6 30.87-31.43 33-33.25 37.22-33.25 41.45-33.25 43.6-31.43 45.75-29.6 45.75-26.25ZM42.25-6.25L42.25-6.25 42.25-26.25Q42.25-30.25 37.25-30.25 32.25-30.25 32.25-26.25L32.25-26.25 32.25-6.25Q32.25-2.25 37.25-2.25 42.25-2.25 42.25-6.25ZM58.5-25.25L58.5 0 55 0 55-32.5 56.5-32.5 57.75-29.25Q60.15-33.25 64.4-33.25L64.4-33.25Q71.75-33.25 71.75-26.25L71.75-26.25 71.75 0 68.25 0 68.25-26.25Q68.25-28.15 67.42-29.2 66.59-30.25 64.4-30.25 62.2-30.25 60.35-28.55 58.5-26.85 58.5-25.25L58.5-25.25ZM84.74-25.25L84.74 0 81.24 0 81.24-32.5 82.74-32.5 83.99-29.25Q86.39-33.25 90.64-33.25L90.64-33.25Q97.99-33.25 97.99-26.25L97.99-26.25 97.99 0 94.49 0 94.49-26.25Q94.49-28.15 93.67-29.2 92.84-30.25 90.64-30.25 88.44-30.25 86.59-28.55 84.74-26.85 84.74-25.25L84.74-25.25ZM119.74-6.25L119.74-6.25 119.74-9 123.24-9 123.24-6.25Q123.24-2.9 121.19-1.07 119.14 0.75 115.04 0.75 110.94 0.75 108.84-1.07 106.74-2.9 106.74-6.25L106.74-6.25 106.74-26.25Q106.74-29.6 108.79-31.43 110.84-33.25 114.94-33.25 119.04-33.25 121.14-31.43 123.24-29.6 123.24-26.25L123.24-26.25 123.24-15.25 110.24-15.25 110.24-6.25Q110.24-2.25 114.99-2.25 119.74-2.25 119.74-6.25ZM110.24-26.25L110.24-26.25 110.24-18.25 119.74-18.25 119.74-26.25Q119.74-30.25 114.99-30.25 110.24-30.25 110.24-26.25ZM144.74-6.25L144.74-6.25 144.74-9 148.24-9 148.24-6.25Q148.24-2.9 146.19-1.07 144.14 0.75 140.04 0.75 135.94 0.75 133.84-1.07 131.74-2.9 131.74-6.25L131.74-6.25 131.74-26.25Q131.74-29.6 133.79-31.43 135.84-33.25 139.94-33.25 144.04-33.25 146.14-31.43 148.24-29.6 148.24-26.25L148.24-26.25 148.24-21.5 144.74-21.5 144.74-26.25Q144.74-30.25 139.99-30.25 135.24-30.25 135.24-26.25L135.24-26.25 135.24-6.25Q135.24-2.25 139.99-2.25 144.74-2.25 144.74-6.25ZM156.24-5.75L156.24-32.5 167.24-32.5 167.24-29.5 159.74-29.5 159.74-5.55Q159.74-4.15 160.46-3.2 161.19-2.25 162.51-2.25 163.84-2.25 164.54-3.18 165.24-4.1 165.24-5.55L165.24-5.55 165.24-11.5 168.74-11.5 168.74-5.75Q168.74-2.6 167.06-0.93 165.39 0.75 162.54 0.75 159.69 0.75 157.96-0.93 156.24-2.6 156.24-5.75L156.24-5.75ZM199.48-6.25L199.48-6.25 199.48-32.5 202.98-32.5 202.98-6.25Q202.98-2.25 207.61-2.25 212.23-2.25 212.23-6.25L212.23-6.25 212.23-32.5 215.73-32.5 215.73-6.25Q215.73-2.95 213.63-1.1 211.53 0.75 207.41 0.75 203.28 0.75 201.23-2.15L201.23-2.15Q199.28 0.75 195.11 0.75 190.93 0.75 188.83-1.1 186.73-2.95 186.73-6.25L186.73-6.25 186.73-32.5 190.23-32.5 190.23-6.25Q190.23-2.25 194.86-2.25 199.48-2.25 199.48-6.25ZM228.73-32.5L228.73 0 225.23 0 225.23-32.5 228.73-32.5ZM237.98-5.75L237.98-32.5 248.98-32.5 248.98-29.5 241.48-29.5 241.48-5.55Q241.48-4.15 242.2-3.2 242.93-2.25 244.25-2.25 245.58-2.25 246.28-3.18 246.98-4.1 246.98-5.55L246.98-5.55 246.98-11.5 250.48-11.5 250.48-5.75Q250.48-2.6 248.8-0.93 247.13 0.75 244.28 0.75 241.43 0.75 239.7-0.93 237.98-2.6 237.98-5.75L237.98-5.75ZM260.97-15L260.97 0 257.47 0 257.47-32.5 260.97-32.5 260.97-18 270.82-18 270.82-32.5 274.32-32.5 274.32 0 270.82 0 270.82-15 260.97-15ZM298.82-10L298.82 0 295.32 0 295.32-32.5 302.87-32.5Q306.77-32.5 308.79-30.65 310.82-28.8 310.82-25.5L310.82-25.5 310.82-17Q310.82-13.65 308.82-11.83 306.82-10 302.87-10L302.87-10 298.82-10ZM307.32-17L307.32-17 307.32-25.5Q307.32-27.4 306.17-28.45 305.02-29.5 302.87-29.5L302.87-29.5 298.82-29.5 298.82-13 302.87-13Q307.32-13 307.32-17ZM331.07-6.25L331.07-6.25 331.07-9 334.57-9 334.57-6.25Q334.57-2.9 332.52-1.07 330.47 0.75 326.37 0.75 322.27 0.75 320.17-1.07 318.07-2.9 318.07-6.25L318.07-6.25 318.07-26.25Q318.07-29.6 320.12-31.43 322.17-33.25 326.27-33.25 330.37-33.25 332.47-31.43 334.57-29.6 334.57-26.25L334.57-26.25 334.57-15.25 321.57-15.25 321.57-6.25Q321.57-2.25 326.32-2.25 331.07-2.25 331.07-6.25ZM321.57-26.25L321.57-26.25 321.57-18.25 331.07-18.25 331.07-26.25Q331.07-30.25 326.32-30.25 321.57-30.25 321.57-26.25ZM360.06-26.25L360.06-26.25 360.06-6.25Q360.06-2.9 357.94-1.07 355.81 0.75 351.59 0.75 347.36 0.75 345.21-1.07 343.06-2.9 343.06-6.25L343.06-6.25 343.06-26.25Q343.06-29.6 345.19-31.43 347.31-33.25 351.54-33.25 355.76-33.25 357.91-31.43 360.06-29.6 360.06-26.25ZM356.56-6.25L356.56-6.25 356.56-26.25Q356.56-30.25 351.56-30.25 346.56-30.25 346.56-26.25L346.56-26.25 346.56-6.25Q346.56-2.25 351.56-2.25 356.56-2.25 356.56-6.25ZM372.31-10L372.31 0 368.81 0 368.81-32.5 376.36-32.5Q380.26-32.5 382.29-30.65 384.31-28.8 384.31-25.5L384.31-25.5 384.31-17Q384.31-13.65 382.31-11.83 380.31-10 376.36-10L376.36-10 372.31-10ZM380.81-17L380.81-17 380.81-25.5Q380.81-27.4 379.66-28.45 378.51-29.5 376.36-29.5L376.36-29.5 372.31-29.5 372.31-13 376.36-13Q380.81-13 380.81-17ZM404.96 0L392.31 0 392.31-32.5 395.81-32.5 395.81-3 404.96-3 404.96 0ZM423.21-6.25L423.21-6.25 423.21-9 426.71-9 426.71-6.25Q426.71-2.9 424.66-1.07 422.61 0.75 418.51 0.75 414.41 0.75 412.31-1.07 410.21-2.9 410.21-6.25L410.21-6.25 410.21-26.25Q410.21-29.6 412.26-31.43 414.31-33.25 418.41-33.25 422.51-33.25 424.61-31.43 426.71-29.6 426.71-26.25L426.71-26.25 426.71-15.25 413.71-15.25 413.71-6.25Q413.71-2.25 418.46-2.25 423.21-2.25 423.21-6.25ZM413.71-26.25L413.71-26.25 413.71-18.25 423.21-18.25 423.21-26.25Q423.21-30.25 418.46-30.25 413.71-30.25 413.71-26.25Z" opacity="1" transform="matrix(1,0,0,1,0,0)" fill="#8d021f" class="undefined-text-1" data-fill-palette-color="secondary" id="text-1"></path></svg></g></svg></g></svg></g></svg></g><g><svg viewBox="0 0 193.82926607685 193.82926607685" height="193.82926607685" width="193.82926607685"><g><svg></svg></g><g id="icon-0"><svg viewBox="0 0 193.82926607685 193.82926607685" height="193.82926607685" width="193.82926607685"><g><path d="M0 96.915c0-53.524 43.39-96.915 96.915-96.915 53.524 0 96.915 43.39 96.914 96.915 0 53.524-43.39 96.915-96.914 96.914-53.524 0-96.915-43.39-96.915-96.914zM96.915 189.407c51.082 0 92.492-41.41 92.492-92.492 0-51.082-41.41-92.492-92.492-92.493-51.082 0-92.492 41.41-92.493 92.493 0 51.082 41.41 92.492 92.493 92.492z" data-fill-palette-color="accent" fill="#5e1914" stroke="transparent"></path></g><g transform="matrix(1,0,0,1,42.175081258178174,40.15475865097689)"><svg viewBox="0 0 109.47910356049364 113.51974877489621" height="113.51974877489621" width="109.47910356049364"><g><svg xmlns="http://www.w3.org/2000/svg" xmlns:xlink="http://www.w3.org/1999/xlink" version="1.1" x="0" y="0" viewBox="3.8600001335144043 2.2275829315185547 88.28500366210938 91.54341888427734" enable-background="new 0 0 96 96" xml:space="preserve" height="113.51974877489621" width="109.47910356049364" class="icon-s-0" data-fill-palette-color="accent" id="s-0"><path d="M74.548 62.107c-6.664 7.148-16.188 13.664-26.528 13.664-10.448 0-20.06-6.644-26.728-13.883C11.1 63.092 3.86 75.271 3.86 91.771c0 1.101 0.9 2 2 2h84.285c1.104 0 2-0.899 2-2C92.141 76.428 84.616 64.148 74.548 62.107z" fill="#5e1914" data-fill-palette-color="accent"></path><path d="M17.596 19.096c-0.032 4.552 1.216 10.336 7.232 16.64 5.432-0.432 25.964-4.588 29.3-14.592 0.304-0.924 1.256-1.488 2.22-1.344 0.965 0.16 1.68 0.996 1.68 1.976 0 2.608 6.752 9.776 13.673 9.996 5.456-1.968 6.899-6.588 7.016-11.7-0.364-0.916-0.692-1.788-0.692-2.296 0-2.816-1.963-6.688-7.323-9.616 0.376-0.32 0.86-0.384 1.323-0.384 0.809 0 1.545-0.484 1.849-1.236 0.312-0.752 0.14-1.608-0.429-2.18-3.131-3.132-9.18-2.672-12.803 0.452C56.912 4.12 52.68 3.768 48.032 3.768c-23.68 0-30 8.8-30 14C18.016 18.108 17.832 18.584 17.596 19.096z" fill="#5e1914" data-fill-palette-color="accent"></path><path d="M72.648 35.672c-0.205 0.076-0.416 0.1-0.633 0.1v12c0 1.1-0.896 2-2 2h-16c-1.1 0-2-0.899-2-2v-6h-8v6c0 1.1-0.896 2-2 2h-16c-1.104 0-2-0.899-2-2v-8c-0.532 0-1.04-0.212-1.416-0.584-3.136-3.136-5.212-6.204-6.584-9.1v15.684c0 4.936 14.764 26 32 26 17.236 0 32-21.063 32-26V30.244C78.484 32.548 76.164 34.5 72.648 35.672L72.648 35.672z" fill="#5e1914" data-fill-palette-color="accent"></path><path d="M55.764 26.468c-2.756 3.712-7.224 6.448-11.952 8.46 0.124 0.256 0.2 0.54 0.2 0.844v2h8v-2c0-1.1 0.896-2 2-2h10.252C60.664 31.968 57.584 29.196 55.764 26.468z" fill="#5e1914" data-fill-palette-color="accent"></path><path d="M56.016 37.772h12v8h-12V37.772z" fill="#5e1914" data-fill-palette-color="accent"></path><path d="M28.016 45.772h12v-8h-4c-0.112 0-0.212-0.048-0.324-0.064-2.916 0.78-5.584 1.296-7.676 1.624V45.772z" fill="#5e1914" data-fill-palette-color="accent"></path></svg></g></svg></g></svg></g></svg></g></svg></g><defs></defs></svg><rect width="395.5199999999999" height="125.16391623835746" fill="none" stroke="none" visibility="hidden"></rect></g></svg></g></svg>